<svg width="12" height="13" viewBox="0 0 12 13" fill="none" xmlns="http://www.w3.org/2000/svg">
<g id="u:auto-flash">
<g id="Vector">
<mask id="path-1-inside-1_21_532" fill="white">
<path d="M10.1349 4.79999C10.0977 4.71435 10.0372 4.64085 9.96028 4.58783C9.8834 4.53481 9.7932 4.50438 9.69991 4.49999H7.40991L8.04491 2.12999C8.06514 2.05583 8.06799 1.978 8.05325 1.90256C8.03851 1.82711 8.00657 1.75608 7.95991 1.69499C7.91282 1.63381 7.8522 1.58437 7.7828 1.55054C7.71341 1.5167 7.63712 1.4994 7.55991 1.49999H4.05991C3.94703 1.49612 3.83617 1.53059 3.74537 1.59777C3.65458 1.66496 3.58921 1.76091 3.55991 1.86999L2.21991 6.86999C2.19953 6.94552 2.19715 7.02478 2.21297 7.10139C2.22878 7.17801 2.26236 7.24984 2.31099 7.31112C2.35963 7.3724 2.42196 7.42141 2.49298 7.45421C2.564 7.48701 2.64173 7.50269 2.71991 7.49999H4.64491L3.73991 10.87C3.71026 10.9787 3.71817 11.0942 3.76236 11.1978C3.80656 11.3014 3.88444 11.387 3.98339 11.4409C4.08235 11.4947 4.19657 11.5135 4.30756 11.4943C4.41856 11.4751 4.51981 11.4189 4.59491 11.335L10.0449 5.33499C10.1098 5.26393 10.1528 5.17566 10.1688 5.08076C10.1847 4.98586 10.173 4.88837 10.1349 4.79999ZM5.23991 9.13999L5.77991 7.13999C5.80247 7.06474 5.80698 6.98524 5.79309 6.90793C5.77919 6.83062 5.74727 6.75767 5.69991 6.69499C5.65231 6.63313 5.59089 6.58327 5.52056 6.54941C5.45023 6.51555 5.37296 6.49863 5.29491 6.49999H3.37491L4.44491 2.49999H6.90991L6.27491 4.86999C6.25453 4.94552 6.25215 5.02478 6.26797 5.10139C6.28378 5.17801 6.31736 5.24984 6.36599 5.31112C6.41463 5.37239 6.47696 5.42141 6.54798 5.45421C6.619 5.48701 6.69673 5.50269 6.77491 5.49999H8.55991L5.23991 9.13999Z"/>
</mask>
<path d="M10.1349 4.79999C10.0977 4.71435 10.0372 4.64085 9.96028 4.58783C9.8834 4.53481 9.7932 4.50438 9.69991 4.49999H7.40991L8.04491 2.12999C8.06514 2.05583 8.06799 1.978 8.05325 1.90256C8.03851 1.82711 8.00657 1.75608 7.95991 1.69499C7.91282 1.63381 7.8522 1.58437 7.7828 1.55054C7.71341 1.5167 7.63712 1.4994 7.55991 1.49999H4.05991C3.94703 1.49612 3.83617 1.53059 3.74537 1.59777C3.65458 1.66496 3.58921 1.76091 3.55991 1.86999L2.21991 6.86999C2.19953 6.94552 2.19715 7.02478 2.21297 7.10139C2.22878 7.17801 2.26236 7.24984 2.31099 7.31112C2.35963 7.3724 2.42196 7.42141 2.49298 7.45421C2.564 7.48701 2.64173 7.50269 2.71991 7.49999H4.64491L3.73991 10.87C3.71026 10.9787 3.71817 11.0942 3.76236 11.1978C3.80656 11.3014 3.88444 11.387 3.98339 11.4409C4.08235 11.4947 4.19657 11.5135 4.30756 11.4943C4.41856 11.4751 4.51981 11.4189 4.59491 11.335L10.0449 5.33499C10.1098 5.26393 10.1528 5.17566 10.1688 5.08076C10.1847 4.98586 10.173 4.88837 10.1349 4.79999ZM5.23991 9.13999L5.77991 7.13999C5.80247 7.06474 5.80698 6.98524 5.79309 6.90793C5.77919 6.83062 5.74727 6.75767 5.69991 6.69499C5.65231 6.63313 5.59089 6.58327 5.52056 6.54941C5.45023 6.51555 5.37296 6.49863 5.29491 6.49999H3.37491L4.44491 2.49999H6.90991L6.27491 4.86999C6.25453 4.94552 6.25215 5.02478 6.26797 5.10139C6.28378 5.17801 6.31736 5.24984 6.36599 5.31112C6.41463 5.37239 6.47696 5.42141 6.54798 5.45421C6.619 5.48701 6.69673 5.50269 6.77491 5.49999H8.55991L5.23991 9.13999Z" fill="black"/>
<path d="M10.1349 4.79999L11.5125 4.20652L11.5104 4.20165L10.1349 4.79999ZM9.69991 4.49999L9.77041 3.00165L9.73518 2.99999H9.69991V4.49999ZM7.40991 4.49999L5.96102 4.11178L5.45511 5.99999H7.40991V4.49999ZM8.04491 2.12999L6.59774 1.73535L6.59602 1.74178L8.04491 2.12999ZM7.95991 1.69499L9.15208 0.784618L9.14855 0.780031L7.95991 1.69499ZM7.55991 1.49999V3.00003L7.57128 2.99995L7.55991 1.49999ZM4.05991 1.49999L4.00856 2.99911L4.03423 2.99999H4.05991V1.49999ZM3.55991 1.86999L2.11126 1.48087L2.11104 1.48169L3.55991 1.86999ZM2.21991 6.86999L3.66809 7.26089L3.66878 7.25829L2.21991 6.86999ZM2.71991 7.49999V5.99999H2.69399L2.66808 6.00089L2.71991 7.49999ZM4.64491 7.49999L6.09359 7.88902L6.60088 5.99999H4.64491V7.49999ZM3.73991 10.87L5.18702 11.2648L5.18859 11.259L3.73991 10.87ZM4.59491 11.335L3.48455 10.3264L3.47701 10.3348L4.59491 11.335ZM10.0449 5.33499L8.9373 4.32345L8.93458 4.32644L10.0449 5.33499ZM5.23991 9.13999L3.79177 8.74899L6.34817 10.1508L5.23991 9.13999ZM5.77991 7.13999L4.3431 6.70922L4.33716 6.72903L4.33177 6.74899L5.77991 7.13999ZM5.69991 6.69499L6.89677 5.79072L6.88869 5.78022L5.69991 6.69499ZM5.29491 6.49999V7.99999H5.30802L5.32113 7.99976L5.29491 6.49999ZM3.37491 6.49999L1.92586 6.11237L1.42092 7.99999H3.37491V6.49999ZM4.44491 2.49999V0.999988H3.29342L2.99586 2.11237L4.44491 2.49999ZM6.90991 2.49999L8.35881 2.88819L8.86472 0.999988H6.90991V2.49999ZM6.27491 4.86999L7.72309 5.26089L7.72381 5.25819L6.27491 4.86999ZM6.77491 5.49999V3.99999H6.74899L6.72308 4.00089L6.77491 5.49999ZM8.55991 5.49999L9.66817 6.51082L11.9583 3.99999H8.55991V5.49999ZM11.5104 4.20165C11.3614 3.85908 11.1194 3.5651 10.8119 3.35301L9.10868 5.82265C8.95492 5.71661 8.83393 5.56962 8.75942 5.39833L11.5104 4.20165ZM10.8119 3.35301C10.5043 3.14092 10.1436 3.0192 9.77041 3.00165L9.62942 5.99833C9.44284 5.98955 9.26245 5.9287 9.10868 5.82265L10.8119 3.35301ZM9.69991 2.99999H7.40991V5.99999H9.69991V2.99999ZM8.85881 4.8882L9.49381 2.51819L6.59602 1.74178L5.96102 4.11178L8.85881 4.8882ZM9.49207 2.52462C9.57296 2.22798 9.58437 1.91667 9.52541 1.61489L6.58109 2.19022C6.5516 2.03933 6.55731 1.88367 6.59776 1.73535L9.49207 2.52462ZM9.52541 1.61489C9.46644 1.31312 9.33868 1.029 9.15207 0.784624L6.76776 2.60535C6.67445 2.48316 6.61057 2.34111 6.58109 2.19022L9.52541 1.61489ZM9.14855 0.780031C8.96018 0.535317 8.7177 0.337547 8.44011 0.202221L7.1255 2.89885C6.9867 2.83119 6.86546 2.7323 6.77128 2.60994L9.14855 0.780031ZM8.44011 0.202221C8.16252 0.0668962 7.85736 -0.00230861 7.54855 3.11136e-05L7.57128 2.99995C7.41687 3.00111 7.26429 2.96651 7.1255 2.89885L8.44011 0.202221ZM7.55991 -1.19209e-05H4.05991V2.99999H7.55991V-1.19209e-05ZM4.11126 0.000867248C3.65974 -0.0145992 3.21628 0.123267 2.85311 0.392011L4.63764 2.80354C4.45606 2.93791 4.23433 3.00684 4.00856 2.99911L4.11126 0.000867248ZM2.85311 0.392011C2.48994 0.660755 2.22846 1.04454 2.11126 1.48087L5.00856 2.25911C4.94996 2.47727 4.81922 2.66917 4.63764 2.80354L2.85311 0.392011ZM2.11104 1.48169L0.771043 6.48169L3.66878 7.25829L5.00878 2.25829L2.11104 1.48169ZM0.771741 6.47909C0.690194 6.78121 0.680675 7.09824 0.74395 7.4047L3.68198 6.79808C3.71362 6.95131 3.70886 7.10983 3.66808 7.26089L0.771741 6.47909ZM0.74395 7.4047C0.807225 7.71116 0.941527 7.99849 1.13606 8.2436L3.48593 6.37863C3.58319 6.50119 3.65034 6.64485 3.68198 6.79808L0.74395 7.4047ZM1.13606 8.2436C1.33059 8.48871 1.57992 8.68476 1.86401 8.81597L3.12195 6.09245C3.26399 6.15805 3.38866 6.25608 3.48593 6.37863L1.13606 8.2436ZM1.86401 8.81597C2.1481 8.94719 2.45901 9.00991 2.77174 8.99909L2.66808 6.00089C2.82445 5.99548 2.9799 6.02684 3.12195 6.09245L1.86401 8.81597ZM2.71991 8.99999H4.64491V5.99999H2.71991V8.99999ZM3.19624 7.11095L2.29124 10.481L5.18859 11.259L6.09359 7.88902L3.19624 7.11095ZM2.29282 10.4751C2.17421 10.9098 2.20585 11.3718 2.38262 11.7862L5.14211 10.6093C5.23049 10.8165 5.24631 11.0475 5.18701 11.2648L2.29282 10.4751ZM2.38262 11.7862C2.55939 12.2007 2.87092 12.5433 3.26673 12.7586L4.70005 10.1231C4.89796 10.2308 5.05372 10.4021 5.14211 10.6093L2.38262 11.7862ZM3.26673 12.7586C3.66255 12.9738 4.11945 13.0492 4.56342 12.9723L4.05171 10.0163C4.27369 9.97784 4.50215 10.0155 4.70005 10.1231L3.26673 12.7586ZM4.56342 12.9723C5.00739 12.8954 5.41239 12.6709 5.71282 12.3351L3.47701 10.3348C3.62722 10.1669 3.82972 10.0547 4.05171 10.0163L4.56342 12.9723ZM5.70524 12.3435L11.1552 6.34354L8.93458 4.32644L3.48458 10.3264L5.70524 12.3435ZM11.1525 6.34653C11.4121 6.06229 11.5841 5.70919 11.648 5.3296L8.68957 4.83192C8.72149 4.64212 8.80751 4.46557 8.93731 4.32345L11.1525 6.34653ZM11.648 5.3296C11.7119 4.95001 11.6648 4.56005 11.5125 4.20653L8.75731 5.39345C8.68116 5.21669 8.65764 5.02171 8.68957 4.83192L11.648 5.3296ZM6.68806 9.53099L7.22806 7.53099L4.33177 6.74899L3.79177 8.74899L6.68806 9.53099ZM7.21673 7.57076C7.30696 7.26978 7.32502 6.95178 7.26942 6.64252L4.31675 7.17334C4.28895 7.01871 4.29798 6.85971 4.3431 6.70922L7.21673 7.57076ZM7.26942 6.64252C7.21382 6.33327 7.08614 6.04146 6.89673 5.79076L4.5031 7.59922C4.40839 7.47387 4.34455 7.32797 4.31675 7.17334L7.26942 6.64252ZM6.88869 5.78022C6.69829 5.53278 6.4526 5.33336 6.17128 5.19791L4.86984 7.90091C4.72918 7.83319 4.60634 7.73348 4.51113 7.60976L6.88869 5.78022ZM6.17128 5.19791C5.88997 5.06246 5.58086 4.99476 5.26869 5.00022L5.32113 7.99976C5.16505 8.00249 5.0105 7.96864 4.86984 7.90091L6.17128 5.19791ZM5.29491 4.99999H3.37491V7.99999H5.29491V4.99999ZM4.82396 6.88761L5.89396 2.88761L2.99586 2.11237L1.92586 6.11237L4.82396 6.88761ZM4.44491 3.99999H6.90991V0.999988H4.44491V3.99999ZM5.46102 2.11178L4.82602 4.48178L7.72381 5.25819L8.35881 2.88819L5.46102 2.11178ZM4.82674 4.47909C4.74519 4.78121 4.73568 5.09824 4.79895 5.4047L7.73698 4.79808C7.76862 4.95131 7.76386 5.10982 7.72308 5.26088L4.82674 4.47909ZM4.79895 5.4047C4.86222 5.71116 4.99653 5.99849 5.19106 6.2436L7.54093 4.37863C7.63819 4.50119 7.70534 4.64485 7.73698 4.79808L4.79895 5.4047ZM5.19106 6.2436C5.38559 6.48871 5.63492 6.68476 5.91901 6.81597L7.17695 4.09245C7.31899 4.15805 7.44366 4.25608 7.54093 4.37863L5.19106 6.2436ZM5.91901 6.81597C6.20309 6.94718 6.51401 7.00991 6.82674 6.99909L6.72308 4.00089C6.87945 3.99548 7.03491 4.02684 7.17695 4.09245L5.91901 6.81597ZM6.77491 6.99999H8.55991V3.99999H6.77491V6.99999ZM7.45166 4.48916L4.13166 8.12917L6.34817 10.1508L9.66817 6.51082L7.45166 4.48916Z" fill="#242424" mask="url(#path-1-inside-1_21_532)"/>
</g>
</g>
</svg>
