<svg width="16" height="16" viewBox="0 0 16 16" fill="none" xmlns="http://www.w3.org/2000/svg">
<path d="M12.9999 8.38133L7.99987 13.3333L2.99988 8.38133C2.67008 8.06041 2.4103 7.67468 2.23691 7.24842C2.06351 6.82217 1.98025 6.36463 1.99237 5.90462C2.00448 5.44461 2.11172 4.99209 2.30731 4.57556C2.50291 4.15902 2.78263 3.7875 3.12887 3.48439C3.4751 3.18127 3.88035 2.95313 4.31908 2.81432C4.75782 2.67551 5.22055 2.62906 5.67812 2.67787C6.1357 2.72668 6.57821 2.8697 6.97779 3.09794C7.37738 3.32617 7.72537 3.63467 7.99987 4.004C8.27556 3.63735 8.62397 3.33155 9.02327 3.10574C9.42258 2.87993 9.8642 2.73897 10.3205 2.69168C10.7768 2.64439 11.2379 2.6918 11.6751 2.83093C12.1122 2.97006 12.5159 3.19792 12.8609 3.50024C13.2059 3.80257 13.4848 4.17286 13.6802 4.58793C13.8755 5.003 13.983 5.45392 13.9961 5.91247C14.0091 6.37102 13.9274 6.82733 13.756 7.25283C13.5845 7.67834 13.3271 8.06388 12.9999 8.38533" stroke="#DE4444" stroke-width="1.5" stroke-linecap="round" stroke-linejoin="round"/>
<path d="M8.00007 13L13.0001 8.5C13.8334 5.66667 14.0001 -0.0999999 8.00007 3.5C2.80007 0.300001 2.16674 5.16667 2.50007 7.5L8.00007 13Z" fill="#DE4444"/>
</svg>
