<svg width="16" height="16" viewBox="0 0 16 16" fill="none" xmlns="http://www.w3.org/2000/svg">
<path d="M7.33346 7.66667V7C7.33346 6.73478 7.43881 6.48043 7.62635 6.29289C7.81388 6.10536 8.06824 6 8.33346 6C8.59867 6 8.85303 6.10536 9.04056 6.29289C9.2281 6.48043 9.33345 6.73478 9.33345 7M9.33345 7V8M9.33345 7C9.33345 6.73478 9.43881 6.48043 9.62635 6.29289C9.81388 6.10536 10.0682 6 10.3335 6C10.5987 6 10.853 6.10536 11.0406 6.29289C11.2281 6.48043 11.3335 6.73478 11.3335 7V8V3.66667C11.3335 3.40145 11.4388 3.1471 11.6263 2.95956C11.8139 2.77202 12.0682 2.66667 12.3335 2.66667C12.5987 2.66667 12.853 2.77202 13.0406 2.95956C13.2281 3.1471 13.3335 3.40145 13.3335 3.66667V10.6667C13.3335 11.7275 12.912 12.7449 12.1619 13.4951C11.4117 14.2452 10.3943 14.6667 9.33345 14.6667H8.00012H8.13879C7.47635 14.6668 6.82425 14.5024 6.24104 14.1882C5.65784 13.874 5.1618 13.4199 4.79746 12.8667C4.75373 12.8001 4.71017 12.7334 4.66679 12.6667C4.45879 12.3473 3.72879 11.0747 2.47612 8.848C2.34842 8.62102 2.31431 8.35318 2.38104 8.10143C2.44778 7.84969 2.61009 7.63392 2.83346 7.5C3.07137 7.35724 3.35017 7.29808 3.62556 7.3319C3.90095 7.36572 4.15715 7.49058 4.35346 7.68667L5.33346 8.66667L5.33346 3C5.33346 2.73478 5.43881 2.48043 5.62635 2.29289C5.81388 2.10536 6.06824 2 6.33346 2C6.59867 2 6.85303 2.10536 7.04056 2.29289C7.2281 2.48043 7.33346 2.73478 7.33346 3V8" stroke="#242424" stroke-width="1.5" stroke-linecap="round" stroke-linejoin="round"/>
</svg>
