<svg width="20" height="20" viewBox="0 0 20 20" fill="none" xmlns="http://www.w3.org/2000/svg">
<path d="M11.3723 7.4165L11.6252 6.4724L12.6836 2.5224L12.6844 2.51918C12.6878 2.50683 12.6883 2.49385 12.6858 2.48128C12.6835 2.46918 12.6785 2.45775 12.6711 2.44783C12.6634 2.43817 12.6537 2.43033 12.6425 2.42491C12.631 2.41927 12.6182 2.41639 12.6054 2.41648L12.5997 2.41653V2.4165H6.76636H6.75352L6.74068 2.41606C6.72187 2.41542 6.70339 2.42116 6.68826 2.43236C6.67314 2.44355 6.66224 2.45954 6.65736 2.4777L11.3723 7.4165ZM11.3723 7.4165H12.3497H16.1396C16.1521 7.41838 16.164 7.42309 16.1745 7.43032C16.187 7.4389 16.1968 7.45071 16.2031 7.46447C16.209 7.47887 16.2108 7.49465 16.2082 7.51003C16.2055 7.52585 16.1984 7.54056 16.1876 7.5524L16.1862 7.5539L7.10286 17.5539L7.10285 17.5539L7.09908 17.5581C7.08656 17.5721 7.06968 17.5814 7.05118 17.5846C7.03269 17.5878 7.01365 17.5847 6.99715 17.5757C6.98066 17.5668 6.96768 17.5525 6.96032 17.5352C6.95295 17.518 6.95163 17.4987 6.95658 17.4806L6.95736 17.4777L8.4657 11.861L8.71934 10.9165H7.74136H4.53303H4.52006L4.50711 10.917C4.49408 10.9174 4.48112 10.9148 4.46929 10.9093C4.45745 10.9039 4.44706 10.8957 4.43896 10.8855C4.43085 10.8753 4.42526 10.8633 4.42262 10.8505C4.41998 10.8378 4.42038 10.8245 4.42378 10.812L4.42413 10.8107L6.65735 2.47773L11.3723 7.4165ZM8.00895 14.2043L9.28715 14.9053L14.8205 8.83858L15.9655 7.58317H14.2664H11.2914H11.2784L11.2654 7.58362C11.2524 7.58407 11.2395 7.58146 11.2276 7.57599C11.2158 7.57052 11.2054 7.56235 11.1973 7.55214C11.1892 7.54193 11.1836 7.52996 11.181 7.51719C11.1783 7.50441 11.1787 7.4912 11.1821 7.47862L11.1825 7.47727L12.2408 3.52727L12.4938 2.58317H11.5164H7.40803H6.83228L6.6835 3.13936L4.90017 9.80603L4.6477 10.7498H5.62469H8.82469V10.75L8.83781 10.7497C8.85081 10.7495 8.86369 10.7523 8.87541 10.758C8.88614 10.7631 8.89562 10.7705 8.90323 10.7796C8.91005 10.7895 8.91469 10.8006 8.91681 10.8124C8.91913 10.8253 8.91838 10.8386 8.91462 10.8511L8.91165 10.861L8.90895 10.871L8.00895 14.2043Z" fill="black" stroke="#242424" stroke-width="1.5"/>
</svg>
