<svg width="12" height="12" viewBox="0 0 12 12" fill="none" xmlns="http://www.w3.org/2000/svg">
<mask id="path-1-inside-1_132_3224" fill="white">
<path d="M10.1349 4.30005C10.0977 4.21441 10.0372 4.14091 9.96028 4.08789C9.8834 4.03487 9.7932 4.00444 9.69991 4.00005H7.40991L8.04491 1.63005C8.06514 1.55589 8.06799 1.47806 8.05325 1.40262C8.03851 1.32717 8.00657 1.25614 7.95991 1.19505C7.91282 1.13387 7.8522 1.08443 7.7828 1.0506C7.71341 1.01677 7.63712 0.999464 7.55991 1.00005H4.05991C3.94703 0.996182 3.83617 1.03065 3.74537 1.09784C3.65458 1.16502 3.58921 1.26097 3.55991 1.37005L2.21991 6.37005C2.19953 6.44558 2.19715 6.52484 2.21297 6.60145C2.22878 6.67807 2.26236 6.7499 2.31099 6.81118C2.35963 6.87246 2.42196 6.92147 2.49298 6.95427C2.564 6.98707 2.64173 7.00275 2.71991 7.00005H4.64491L3.73991 10.3701C3.71026 10.4787 3.71817 10.5942 3.76236 10.6978C3.80656 10.8014 3.88444 10.8871 3.98339 10.9409C4.08235 10.9947 4.19657 11.0136 4.30756 10.9943C4.41856 10.9751 4.51981 10.919 4.59491 10.8351L10.0449 4.83505C10.1098 4.76399 10.1528 4.67572 10.1688 4.58082C10.1847 4.48592 10.173 4.38843 10.1349 4.30005ZM5.23991 8.64005L5.77991 6.64005C5.80247 6.56481 5.80698 6.48531 5.79309 6.40799C5.77919 6.33068 5.74727 6.25773 5.69991 6.19505C5.65231 6.13319 5.59089 6.08333 5.52056 6.04947C5.45023 6.01561 5.37296 5.99869 5.29491 6.00005H3.37491L4.44491 2.00005H6.90991L6.27491 4.37005C6.25453 4.44558 6.25215 4.52484 6.26797 4.60145C6.28378 4.67807 6.31736 4.7499 6.36599 4.81118C6.41463 4.87246 6.47696 4.92147 6.54798 4.95427C6.619 4.98707 6.69673 5.00275 6.77491 5.00005H8.55991L5.23991 8.64005Z"/>
</mask>
<path d="M10.1349 4.30005C10.0977 4.21441 10.0372 4.14091 9.96028 4.08789C9.8834 4.03487 9.7932 4.00444 9.69991 4.00005H7.40991L8.04491 1.63005C8.06514 1.55589 8.06799 1.47806 8.05325 1.40262C8.03851 1.32717 8.00657 1.25614 7.95991 1.19505C7.91282 1.13387 7.8522 1.08443 7.7828 1.0506C7.71341 1.01677 7.63712 0.999464 7.55991 1.00005H4.05991C3.94703 0.996182 3.83617 1.03065 3.74537 1.09784C3.65458 1.16502 3.58921 1.26097 3.55991 1.37005L2.21991 6.37005C2.19953 6.44558 2.19715 6.52484 2.21297 6.60145C2.22878 6.67807 2.26236 6.7499 2.31099 6.81118C2.35963 6.87246 2.42196 6.92147 2.49298 6.95427C2.564 6.98707 2.64173 7.00275 2.71991 7.00005H4.64491L3.73991 10.3701C3.71026 10.4787 3.71817 10.5942 3.76236 10.6978C3.80656 10.8014 3.88444 10.8871 3.98339 10.9409C4.08235 10.9947 4.19657 11.0136 4.30756 10.9943C4.41856 10.9751 4.51981 10.919 4.59491 10.8351L10.0449 4.83505C10.1098 4.76399 10.1528 4.67572 10.1688 4.58082C10.1847 4.48592 10.173 4.38843 10.1349 4.30005ZM5.23991 8.64005L5.77991 6.64005C5.80247 6.56481 5.80698 6.48531 5.79309 6.40799C5.77919 6.33068 5.74727 6.25773 5.69991 6.19505C5.65231 6.13319 5.59089 6.08333 5.52056 6.04947C5.45023 6.01561 5.37296 5.99869 5.29491 6.00005H3.37491L4.44491 2.00005H6.90991L6.27491 4.37005C6.25453 4.44558 6.25215 4.52484 6.26797 4.60145C6.28378 4.67807 6.31736 4.7499 6.36599 4.81118C6.41463 4.87246 6.47696 4.92147 6.54798 4.95427C6.619 4.98707 6.69673 5.00275 6.77491 5.00005H8.55991L5.23991 8.64005Z" fill="black"/>
<path d="M10.1349 4.30005L11.5125 3.70658L11.5104 3.70171L10.1349 4.30005ZM9.69991 4.00005L9.77041 2.50171L9.73518 2.50005H9.69991V4.00005ZM7.40991 4.00005L5.96102 3.61184L5.45511 5.50005H7.40991V4.00005ZM8.04491 1.63005L6.59774 1.23541L6.59602 1.24184L8.04491 1.63005ZM7.95991 1.19505L9.15208 0.284679L9.14855 0.280092L7.95991 1.19505ZM7.55991 1.00005V2.50009L7.57128 2.50001L7.55991 1.00005ZM4.05991 1.00005L4.00856 2.49917L4.03423 2.50005H4.05991V1.00005ZM3.55991 1.37005L2.11126 0.980928L2.11104 0.981752L3.55991 1.37005ZM2.21991 6.37005L3.66809 6.76095L3.66878 6.75835L2.21991 6.37005ZM2.71991 7.00005V5.50005H2.69399L2.66808 5.50095L2.71991 7.00005ZM4.64491 7.00005L6.09359 7.38909L6.60088 5.50005H4.64491V7.00005ZM3.73991 10.3701L5.18702 10.7649L5.18859 10.7591L3.73991 10.3701ZM4.59491 10.8351L3.48455 9.82648L3.47701 9.83491L4.59491 10.8351ZM10.0449 4.83505L8.9373 3.82351L8.93458 3.8265L10.0449 4.83505ZM5.23991 8.64005L3.79177 8.24905L6.34817 9.65088L5.23991 8.64005ZM5.77991 6.64005L4.3431 6.20928L4.33716 6.22909L4.33177 6.24905L5.77991 6.64005ZM5.69991 6.19505L6.89677 5.29078L6.88869 5.28028L5.69991 6.19505ZM5.29491 6.00005V7.50005H5.30802L5.32113 7.49982L5.29491 6.00005ZM3.37491 6.00005L1.92586 5.61243L1.42092 7.50005H3.37491V6.00005ZM4.44491 2.00005V0.500049H3.29342L2.99586 1.61243L4.44491 2.00005ZM6.90991 2.00005L8.35881 2.38826L8.86472 0.500049H6.90991V2.00005ZM6.27491 4.37005L7.72309 4.76095L7.72381 4.75826L6.27491 4.37005ZM6.77491 5.00005V3.50005H6.74899L6.72308 3.50095L6.77491 5.00005ZM8.55991 5.00005L9.66817 6.01088L11.9583 3.50005H8.55991V5.00005ZM11.5104 3.70171C11.3614 3.35914 11.1194 3.06516 10.8119 2.85307L9.10868 5.32271C8.95492 5.21667 8.83393 5.06968 8.75942 4.89839L11.5104 3.70171ZM10.8119 2.85307C10.5043 2.64098 10.1436 2.51926 9.77041 2.50171L9.62942 5.49839C9.44284 5.48961 9.26245 5.42876 9.10868 5.32271L10.8119 2.85307ZM9.69991 2.50005H7.40991V5.50005H9.69991V2.50005ZM8.85881 4.38826L9.49381 2.01826L6.59602 1.24184L5.96102 3.61184L8.85881 4.38826ZM9.49207 2.02469C9.57296 1.72804 9.58437 1.41673 9.52541 1.11495L6.58109 1.69028C6.5516 1.53939 6.55731 1.38373 6.59776 1.23541L9.49207 2.02469ZM9.52541 1.11495C9.46644 0.813176 9.33868 0.529062 9.15207 0.284685L6.76776 2.10541C6.67445 1.98323 6.61057 1.84117 6.58109 1.69028L9.52541 1.11495ZM9.14855 0.280092C8.96018 0.0353781 8.7177 -0.162392 8.44011 -0.297718L7.1255 2.39891C6.9867 2.33125 6.86546 2.23236 6.77128 2.11001L9.14855 0.280092ZM8.44011 -0.297718C8.16252 -0.433043 7.85736 -0.502248 7.54855 -0.499908L7.57128 2.50001C7.41687 2.50118 7.26429 2.46657 7.1255 2.39891L8.44011 -0.297718ZM7.55991 -0.499951H4.05991V2.50005H7.55991V-0.499951ZM4.11126 -0.499072C3.65974 -0.514538 3.21628 -0.376672 2.85311 -0.107928L4.63764 2.3036C4.45606 2.43797 4.23433 2.5069 4.00856 2.49917L4.11126 -0.499072ZM2.85311 -0.107928C2.48994 0.160816 2.22846 0.544604 2.11126 0.980929L5.00856 1.75917C4.94996 1.97733 4.81922 2.16923 4.63764 2.3036L2.85311 -0.107928ZM2.11104 0.981752L0.771043 5.98175L3.66878 6.75835L5.00878 1.75835L2.11104 0.981752ZM0.771741 5.97916C0.690194 6.28127 0.680675 6.5983 0.74395 6.90476L3.68198 6.29815C3.71362 6.45138 3.70886 6.60989 3.66808 6.76095L0.771741 5.97916ZM0.74395 6.90476C0.807225 7.21122 0.941527 7.49856 1.13606 7.74367L3.48593 5.87869C3.58319 6.00125 3.65034 6.14492 3.68198 6.29815L0.74395 6.90476ZM1.13606 7.74367C1.33059 7.98877 1.57992 8.18482 1.86401 8.31603L3.12195 5.59251C3.26399 5.65812 3.38866 5.75614 3.48593 5.87869L1.13606 7.74367ZM1.86401 8.31603C2.1481 8.44725 2.45901 8.50997 2.77174 8.49916L2.66808 5.50095C2.82445 5.49554 2.9799 5.5269 3.12195 5.59251L1.86401 8.31603ZM2.71991 8.50005H4.64491V5.50005H2.71991V8.50005ZM3.19624 6.61102L2.29124 9.98102L5.18859 10.7591L6.09359 7.38909L3.19624 6.61102ZM2.29282 9.9752C2.17421 10.4099 2.20585 10.8719 2.38262 11.2863L5.14211 10.1093C5.23049 10.3166 5.24631 10.5476 5.18701 10.7649L2.29282 9.9752ZM2.38262 11.2863C2.55939 11.7008 2.87092 12.0434 3.26673 12.2586L4.70005 9.62319C4.89796 9.73082 5.05372 9.90212 5.14211 10.1093L2.38262 11.2863ZM3.26673 12.2586C3.66255 12.4739 4.11945 12.5492 4.56342 12.4724L4.05171 9.51632C4.27369 9.4779 4.50215 9.51555 4.70005 9.62319L3.26673 12.2586ZM4.56342 12.4724C5.00739 12.3955 5.41239 12.171 5.71282 11.8352L3.47701 9.83491C3.62722 9.66701 3.82972 9.55475 4.05171 9.51632L4.56342 12.4724ZM5.70524 11.8436L11.1552 5.8436L8.93458 3.8265L3.48458 9.8265L5.70524 11.8436ZM11.1525 5.84659C11.4121 5.56235 11.5841 5.20925 11.648 4.82966L8.68957 4.33198C8.72149 4.14219 8.80751 3.96563 8.93731 3.82351L11.1525 5.84659ZM11.648 4.82966C11.7119 4.45007 11.6648 4.06011 11.5125 3.70659L8.75731 4.89351C8.68116 4.71675 8.65764 4.52177 8.68957 4.33198L11.648 4.82966ZM6.68806 9.03105L7.22806 7.03105L4.33177 6.24905L3.79177 8.24905L6.68806 9.03105ZM7.21673 7.07082C7.30696 6.76985 7.32502 6.45184 7.26942 6.14258L4.31675 6.6734C4.28895 6.51877 4.29798 6.35977 4.3431 6.20928L7.21673 7.07082ZM7.26942 6.14258C7.21382 5.83333 7.08614 5.54152 6.89673 5.29082L4.5031 7.09928C4.40839 6.97393 4.34455 6.82803 4.31675 6.6734L7.26942 6.14258ZM6.88869 5.28028C6.69829 5.03284 6.4526 4.83342 6.17128 4.69797L4.86984 7.40098C4.72918 7.33325 4.60634 7.23354 4.51113 7.10982L6.88869 5.28028ZM6.17128 4.69797C5.88997 4.56252 5.58086 4.49482 5.26869 4.50028L5.32113 7.49982C5.16505 7.50255 5.0105 7.4687 4.86984 7.40098L6.17128 4.69797ZM5.29491 4.50005H3.37491V7.50005H5.29491V4.50005ZM4.82396 6.38767L5.89396 2.38767L2.99586 1.61243L1.92586 5.61243L4.82396 6.38767ZM4.44491 3.50005H6.90991V0.500049H4.44491V3.50005ZM5.46102 1.61184L4.82602 3.98184L7.72381 4.75826L8.35881 2.38826L5.46102 1.61184ZM4.82674 3.97915C4.74519 4.28127 4.73568 4.5983 4.79895 4.90476L7.73698 4.29814C7.76862 4.45137 7.76386 4.60988 7.72308 4.76095L4.82674 3.97915ZM4.79895 4.90476C4.86222 5.21122 4.99653 5.49855 5.19106 5.74366L7.54093 3.87869C7.63819 4.00125 7.70534 4.14491 7.73698 4.29814L4.79895 4.90476ZM5.19106 5.74366C5.38559 5.98877 5.63492 6.18482 5.91901 6.31603L7.17695 3.59251C7.31899 3.65812 7.44366 3.75614 7.54093 3.87869L5.19106 5.74366ZM5.91901 6.31603C6.20309 6.44725 6.51401 6.50997 6.82674 6.49916L6.72308 3.50095C6.87945 3.49554 7.03491 3.5269 7.17695 3.59251L5.91901 6.31603ZM6.77491 6.50005H8.55991V3.50005H6.77491V6.50005ZM7.45166 3.98922L4.13166 7.62923L6.34817 9.65088L9.66817 6.01088L7.45166 3.98922Z" fill="#242424" mask="url(#path-1-inside-1_132_3224)"/>
</svg>
